# xmcd
#
# Track frame offsets:
#	150
#	10091
#	24595
#	36867
#	54373
#	70423
#	85416
#	98638
#	112839
#	126005
#	140801
#	158056
#
# Disc length: 2373 seconds
#
# Revision: 2
# Processed by: cddbd v1.5.2PL0 Copyright (c) Steve Scherf et al.
# Submitted via: audiograbber 1.83.01
#
DISCID=9609430c
DTITLE=Rudy Osborne - Classic-N-Steel
DYEAR=2000
DGENRE=Country
TTITLE0=I Can't Forget You
TTITLE1=Blue Side Of Town
TTITLE2=Play That Texas 2-Step
TTITLE3=Tell Me I'm Crazy
TTITLE4=Spanish Eyes
TTITLE5=I'm So Lonesome I could Cry
TTITLE6=Secret Love
TTITLE7=Momma's Lullaby
TTITLE8=Just Pass It On
TTITLE9=My Heart Belongs To You
TTITLE10=Have I told You Lately That I Love You
TTITLE11=Last Date
EXTD=
EXTT0=
EXTT1=
EXTT2=
EXTT3=
EXTT4=
EXTT5=
EXTT6=
EXTT7=
EXTT8=
EXTT9=
EXTT10=
EXTT11=
PLAYORDER=
